<?xml version="1.0" encoding="utf-8" standalone="no"?>
<!DOCTYPE svg PUBLIC "-//W3C//DTD SVG 1.1//EN"
  "http://www.w3.org/Graphics/SVG/1.1/DTD/svg11.dtd">
<svg xmlns:xlink="http://www.w3.org/1999/xlink" width="147.628346pt" height="128.392774pt" viewBox="0 0 147.628346 128.392774" xmlns="http://www.w3.org/2000/svg" version="1.1">
 <metadata>
  <rdf:RDF xmlns:dc="http://purl.org/dc/elements/1.1/" xmlns:cc="http://creativecommons.org/ns#" xmlns:rdf="http://www.w3.org/1999/02/22-rdf-syntax-ns#">
   <cc:Work>
    <dc:type rdf:resource="http://purl.org/dc/dcmitype/StillImage"/>
    <dc:date>2026-04-28T13:32:56.316084</dc:date>
    <dc:format>image/svg+xml</dc:format>
    <dc:creator>
     <cc:Agent>
      <dc:title>Matplotlib v3.10.7, https://matplotlib.org/</dc:title>
     </cc:Agent>
    </dc:creator>
   </cc:Work>
  </rdf:RDF>
 </metadata>
 <defs>
  <style type="text/css">*{stroke-linejoin: round; stroke-linecap: butt}</style>
 </defs>
 <g id="figure_1">
  <g id="patch_1">
   <path d="M 0 128.392774 
L 147.628346 128.392774 
L 147.628346 -0 
L 0 -0 
L 0 128.392774 
z
" style="fill: none"/>
  </g>
  <g id="axes_1">
   <g id="patch_2">
    <path d="M 49.622516 79.530936 
L 9.386374 64.892922 
L 7.857922 71.679627 
L 6.710379 112.75878 
L 26.798742 118.107388 
z
" clip-path="url(#p07c0800e03)" style="fill: #2ca02c; opacity: 0.2; stroke: #2ca02c; stroke-width: 1.5; stroke-linejoin: miter"/>
   </g>
   <g id="patch_3">
    <path d="M 65.092251 5.836035 
L 43.30963 45.289818 
L 46.180455 48.742813 
L 72.391846 65.282044 
L 86.186501 46.424545 
L 83.516203 32.779397 
L 82.354759 30.539888 
z
" clip-path="url(#p07c0800e03)" style="fill: #2ca02c; opacity: 0.2; stroke: #2ca02c; stroke-width: 1.5; stroke-linejoin: miter"/>
   </g>
   <g id="patch_4">
    <path d="M 31.796263 122.556739 
L 87.151667 120.726962 
L 69.970621 100.977435 
L 68.019836 99.449777 
L 50.193877 106.303521 
z
" clip-path="url(#p07c0800e03)" style="fill: #2ca02c; opacity: 0.2; stroke: #2ca02c; stroke-width: 1.5; stroke-linejoin: miter"/>
   </g>
   <g id="patch_5">
    <path d="M 20.874 24.945136 
L 55.989354 13.610664 
L 48.392762 10.513826 
L 41.134554 8.585059 
L 16.82781 7.821234 
L 17.141194 16.473848 
z
" clip-path="url(#p07c0800e03)" style="fill: #2ca02c; opacity: 0.2; stroke: #2ca02c; stroke-width: 1.5; stroke-linejoin: miter"/>
   </g>
   <g id="patch_6">
    <path d="M 18.133893 53.795272 
L 21.888156 67.059737 
L 50.435651 61.731245 
L 46.809674 54.793607 
L 35.61885 44.058477 
L 25.058022 40.917562 
L 18.866209 43.770993 
z
" clip-path="url(#p07c0800e03)" style="fill: #2ca02c; opacity: 0.2; stroke: #2ca02c; stroke-width: 1.5; stroke-linejoin: miter"/>
   </g>
   <g id="patch_7">
    <path d="M 100.116766 106.868952 
L 114.307833 113.625921 
L 136.120842 94.874955 
L 113.064953 71.42355 
L 105.760342 68.698272 
L 102.632431 86.414765 
z
" clip-path="url(#p07c0800e03)" style="fill: #2ca02c; opacity: 0.2; stroke: #2ca02c; stroke-width: 1.5; stroke-linejoin: miter"/>
   </g>
   <g id="patch_8">
    <path d="M 140.917967 17.597347 
L 120.47421 17.237159 
L 120.663809 48.579074 
L 139.19946 66.277836 
z
" clip-path="url(#p07c0800e03)" style="fill: #2ca02c; opacity: 0.2; stroke: #2ca02c; stroke-width: 1.5; stroke-linejoin: miter"/>
   </g>
   <g id="patch_9">
    <path d="M 88.350393 19.796534 
L 93.352889 57.831879 
L 114.900896 44.646592 
L 108.931936 8.782551 
z
" clip-path="url(#p07c0800e03)" style="fill: #2ca02c; opacity: 0.2; stroke: #2ca02c; stroke-width: 1.5; stroke-linejoin: miter"/>
   </g>
   <g id="patch_10">
    <path d="M 58.350813 89.26325 
L 66.269719 96.502132 
L 82.662677 87.412097 
L 97.542722 75.273691 
L 98.121667 67.605855 
L 66.657919 78.279432 
z
" clip-path="url(#p07c0800e03)" style="fill: #2ca02c; opacity: 0.2; stroke: #2ca02c; stroke-width: 1.5; stroke-linejoin: miter"/>
   </g>
   <g id="PathCollection_1">
    <defs>
     <path id="m4a05b2386b" d="M 0 2.738613 
C 0.726289 2.738613 1.422928 2.450055 1.936492 1.936492 
C 2.450055 1.422928 2.738613 0.726289 2.738613 0 
C 2.738613 -0.726289 2.450055 -1.422928 1.936492 -1.936492 
C 1.422928 -2.450055 0.726289 -2.738613 0 -2.738613 
C -0.726289 -2.738613 -1.422928 -2.450055 -1.936492 -1.936492 
C -2.450055 -1.422928 -2.738613 -0.726289 -2.738613 0 
C -2.738613 0.726289 -2.450055 1.422928 -1.936492 1.936492 
C -1.422928 2.450055 -0.726289 2.738613 0 2.738613 
z
" style="stroke: #008000; stroke-width: 1.5; stroke-linecap: round"/>
    </defs>
    <g clip-path="url(#p07c0800e03)">
     <use xlink:href="#m4a05b2386b" x="113.064953" y="71.42355" style="fill: #ffffff; stroke: #008000; stroke-width: 1.5; stroke-linecap: round"/>
     <use xlink:href="#m4a05b2386b" x="125.047811" y="40.793418" style="fill: #ffffff; stroke: #008000; stroke-width: 1.5; stroke-linecap: round"/>
     <use xlink:href="#m4a05b2386b" x="16.82781" y="7.821234" style="fill: #ffffff; stroke: #008000; stroke-width: 1.5; stroke-linecap: round"/>
     <use xlink:href="#m4a05b2386b" x="111.250526" y="30.283213" style="fill: #ffffff; stroke: #008000; stroke-width: 1.5; stroke-linecap: round"/>
     <use xlink:href="#m4a05b2386b" x="21.632213" y="70.059951" style="fill: #ffffff; stroke: #008000; stroke-width: 1.5; stroke-linecap: round"/>
     <use xlink:href="#m4a05b2386b" x="55.989354" y="13.610664" style="fill: #ffffff; stroke: #008000; stroke-width: 1.5; stroke-linecap: round"/>
     <use xlink:href="#m4a05b2386b" x="94.647813" y="25.934708" style="fill: #ffffff; stroke: #008000; stroke-width: 1.5; stroke-linecap: round"/>
     <use xlink:href="#m4a05b2386b" x="66.269719" y="96.502132" style="fill: #ffffff; stroke: #008000; stroke-width: 1.5; stroke-linecap: round"/>
     <use xlink:href="#m4a05b2386b" x="82.008282" y="115.867017" style="fill: #ffffff; stroke: #008000; stroke-width: 1.5; stroke-linecap: round"/>
     <use xlink:href="#m4a05b2386b" x="120.663809" y="48.579074" style="fill: #ffffff; stroke: #008000; stroke-width: 1.5; stroke-linecap: round"/>
     <use xlink:href="#m4a05b2386b" x="110.818456" y="81.419029" style="fill: #ffffff; stroke: #008000; stroke-width: 1.5; stroke-linecap: round"/>
     <use xlink:href="#m4a05b2386b" x="140.917967" y="17.597347" style="fill: #ffffff; stroke: #008000; stroke-width: 1.5; stroke-linecap: round"/>
     <use xlink:href="#m4a05b2386b" x="113.691753" y="100.365122" style="fill: #ffffff; stroke: #008000; stroke-width: 1.5; stroke-linecap: round"/>
     <use xlink:href="#m4a05b2386b" x="69.569293" y="118.238547" style="fill: #ffffff; stroke: #008000; stroke-width: 1.5; stroke-linecap: round"/>
     <use xlink:href="#m4a05b2386b" x="25.337963" y="42.49018" style="fill: #ffffff; stroke: #008000; stroke-width: 1.5; stroke-linecap: round"/>
     <use xlink:href="#m4a05b2386b" x="108.931936" y="8.782551" style="fill: #ffffff; stroke: #008000; stroke-width: 1.5; stroke-linecap: round"/>
     <use xlink:href="#m4a05b2386b" x="49.622516" y="79.530936" style="fill: #ffffff; stroke: #008000; stroke-width: 1.5; stroke-linecap: round"/>
     <use xlink:href="#m4a05b2386b" x="69.970621" y="100.977435" style="fill: #ffffff; stroke: #008000; stroke-width: 1.5; stroke-linecap: round"/>
     <use xlink:href="#m4a05b2386b" x="21.888156" y="67.059737" style="fill: #ffffff; stroke: #008000; stroke-width: 1.5; stroke-linecap: round"/>
     <use xlink:href="#m4a05b2386b" x="35.61885" y="44.058477" style="fill: #ffffff; stroke: #008000; stroke-width: 1.5; stroke-linecap: round"/>
     <use xlink:href="#m4a05b2386b" x="65.38316" y="24.759627" style="fill: #ffffff; stroke: #008000; stroke-width: 1.5; stroke-linecap: round"/>
     <use xlink:href="#m4a05b2386b" x="102.632431" y="86.414765" style="fill: #ffffff; stroke: #008000; stroke-width: 1.5; stroke-linecap: round"/>
     <use xlink:href="#m4a05b2386b" x="121.31909" y="28.067321" style="fill: #ffffff; stroke: #008000; stroke-width: 1.5; stroke-linecap: round"/>
     <use xlink:href="#m4a05b2386b" x="58.350813" y="89.26325" style="fill: #ffffff; stroke: #008000; stroke-width: 1.5; stroke-linecap: round"/>
     <use xlink:href="#m4a05b2386b" x="100.116766" y="106.868952" style="fill: #ffffff; stroke: #008000; stroke-width: 1.5; stroke-linecap: round"/>
     <use xlink:href="#m4a05b2386b" x="31.796263" y="122.556739" style="fill: #ffffff; stroke: #008000; stroke-width: 1.5; stroke-linecap: round"/>
     <use xlink:href="#m4a05b2386b" x="114.900896" y="44.646592" style="fill: #ffffff; stroke: #008000; stroke-width: 1.5; stroke-linecap: round"/>
     <use xlink:href="#m4a05b2386b" x="103.32617" y="30.915425" style="fill: #ffffff; stroke: #008000; stroke-width: 1.5; stroke-linecap: round"/>
     <use xlink:href="#m4a05b2386b" x="68.464297" y="56.035258" style="fill: #ffffff; stroke: #008000; stroke-width: 1.5; stroke-linecap: round"/>
     <use xlink:href="#m4a05b2386b" x="23.286242" y="109.857721" style="fill: #ffffff; stroke: #008000; stroke-width: 1.5; stroke-linecap: round"/>
     <use xlink:href="#m4a05b2386b" x="98.121667" y="67.605855" style="fill: #ffffff; stroke: #008000; stroke-width: 1.5; stroke-linecap: round"/>
     <use xlink:href="#m4a05b2386b" x="83.516203" y="32.779397" style="fill: #ffffff; stroke: #008000; stroke-width: 1.5; stroke-linecap: round"/>
     <use xlink:href="#m4a05b2386b" x="93.352889" y="57.831879" style="fill: #ffffff; stroke: #008000; stroke-width: 1.5; stroke-linecap: round"/>
     <use xlink:href="#m4a05b2386b" x="82.662677" y="87.412097" style="fill: #ffffff; stroke: #008000; stroke-width: 1.5; stroke-linecap: round"/>
     <use xlink:href="#m4a05b2386b" x="7.857922" y="71.679627" style="fill: #ffffff; stroke: #008000; stroke-width: 1.5; stroke-linecap: round"/>
     <use xlink:href="#m4a05b2386b" x="33.87403" y="75.019897" style="fill: #ffffff; stroke: #008000; stroke-width: 1.5; stroke-linecap: round"/>
     <use xlink:href="#m4a05b2386b" x="124.31237" y="95.708115" style="fill: #ffffff; stroke: #008000; stroke-width: 1.5; stroke-linecap: round"/>
     <use xlink:href="#m4a05b2386b" x="11.748996" y="90.086115" style="fill: #ffffff; stroke: #008000; stroke-width: 1.5; stroke-linecap: round"/>
     <use xlink:href="#m4a05b2386b" x="45.059447" y="44.994302" style="fill: #ffffff; stroke: #008000; stroke-width: 1.5; stroke-linecap: round"/>
     <use xlink:href="#m4a05b2386b" x="82.354759" y="30.539888" style="fill: #ffffff; stroke: #008000; stroke-width: 1.5; stroke-linecap: round"/>
     <use xlink:href="#m4a05b2386b" x="97.542722" y="75.273691" style="fill: #ffffff; stroke: #008000; stroke-width: 1.5; stroke-linecap: round"/>
     <use xlink:href="#m4a05b2386b" x="118.736913" y="103.643423" style="fill: #ffffff; stroke: #008000; stroke-width: 1.5; stroke-linecap: round"/>
     <use xlink:href="#m4a05b2386b" x="6.710379" y="112.75878" style="fill: #ffffff; stroke: #008000; stroke-width: 1.5; stroke-linecap: round"/>
     <use xlink:href="#m4a05b2386b" x="105.760342" y="68.698272" style="fill: #ffffff; stroke: #008000; stroke-width: 1.5; stroke-linecap: round"/>
     <use xlink:href="#m4a05b2386b" x="26.326455" y="64.057052" style="fill: #ffffff; stroke: #008000; stroke-width: 1.5; stroke-linecap: round"/>
     <use xlink:href="#m4a05b2386b" x="25.058022" y="40.917562" style="fill: #ffffff; stroke: #008000; stroke-width: 1.5; stroke-linecap: round"/>
     <use xlink:href="#m4a05b2386b" x="66.657919" y="78.279432" style="fill: #ffffff; stroke: #008000; stroke-width: 1.5; stroke-linecap: round"/>
     <use xlink:href="#m4a05b2386b" x="46.180455" y="48.742813" style="fill: #ffffff; stroke: #008000; stroke-width: 1.5; stroke-linecap: round"/>
     <use xlink:href="#m4a05b2386b" x="54.717278" y="113.042928" style="fill: #ffffff; stroke: #008000; stroke-width: 1.5; stroke-linecap: round"/>
     <use xlink:href="#m4a05b2386b" x="20.201249" y="9.447562" style="fill: #ffffff; stroke: #008000; stroke-width: 1.5; stroke-linecap: round"/>
     <use xlink:href="#m4a05b2386b" x="132.123936" y="40.516242" style="fill: #ffffff; stroke: #008000; stroke-width: 1.5; stroke-linecap: round"/>
     <use xlink:href="#m4a05b2386b" x="41.134554" y="8.585059" style="fill: #ffffff; stroke: #008000; stroke-width: 1.5; stroke-linecap: round"/>
     <use xlink:href="#m4a05b2386b" x="113.743767" y="38.480109" style="fill: #ffffff; stroke: #008000; stroke-width: 1.5; stroke-linecap: round"/>
     <use xlink:href="#m4a05b2386b" x="67.111687" y="91.16945" style="fill: #ffffff; stroke: #008000; stroke-width: 1.5; stroke-linecap: round"/>
     <use xlink:href="#m4a05b2386b" x="17.141194" y="16.473848" style="fill: #ffffff; stroke: #008000; stroke-width: 1.5; stroke-linecap: round"/>
     <use xlink:href="#m4a05b2386b" x="68.019836" y="99.449777" style="fill: #ffffff; stroke: #008000; stroke-width: 1.5; stroke-linecap: round"/>
     <use xlink:href="#m4a05b2386b" x="46.809674" y="54.793607" style="fill: #ffffff; stroke: #008000; stroke-width: 1.5; stroke-linecap: round"/>
     <use xlink:href="#m4a05b2386b" x="28.520952" y="21.923282" style="fill: #ffffff; stroke: #008000; stroke-width: 1.5; stroke-linecap: round"/>
     <use xlink:href="#m4a05b2386b" x="110.879585" y="38.175245" style="fill: #ffffff; stroke: #008000; stroke-width: 1.5; stroke-linecap: round"/>
     <use xlink:href="#m4a05b2386b" x="64.666968" y="49.095192" style="fill: #ffffff; stroke: #008000; stroke-width: 1.5; stroke-linecap: round"/>
     <use xlink:href="#m4a05b2386b" x="86.186501" y="46.424545" style="fill: #ffffff; stroke: #008000; stroke-width: 1.5; stroke-linecap: round"/>
     <use xlink:href="#m4a05b2386b" x="15.449893" y="74.157389" style="fill: #ffffff; stroke: #008000; stroke-width: 1.5; stroke-linecap: round"/>
     <use xlink:href="#m4a05b2386b" x="9.386374" y="64.892922" style="fill: #ffffff; stroke: #008000; stroke-width: 1.5; stroke-linecap: round"/>
     <use xlink:href="#m4a05b2386b" x="50.193877" y="106.303521" style="fill: #ffffff; stroke: #008000; stroke-width: 1.5; stroke-linecap: round"/>
     <use xlink:href="#m4a05b2386b" x="18.133893" y="53.795272" style="fill: #ffffff; stroke: #008000; stroke-width: 1.5; stroke-linecap: round"/>
     <use xlink:href="#m4a05b2386b" x="27.646068" y="13.805575" style="fill: #ffffff; stroke: #008000; stroke-width: 1.5; stroke-linecap: round"/>
     <use xlink:href="#m4a05b2386b" x="85.756573" y="82.326258" style="fill: #ffffff; stroke: #008000; stroke-width: 1.5; stroke-linecap: round"/>
     <use xlink:href="#m4a05b2386b" x="87.151667" y="120.726962" style="fill: #ffffff; stroke: #008000; stroke-width: 1.5; stroke-linecap: round"/>
     <use xlink:href="#m4a05b2386b" x="139.19946" y="66.277836" style="fill: #ffffff; stroke: #008000; stroke-width: 1.5; stroke-linecap: round"/>
     <use xlink:href="#m4a05b2386b" x="114.307833" y="113.625921" style="fill: #ffffff; stroke: #008000; stroke-width: 1.5; stroke-linecap: round"/>
     <use xlink:href="#m4a05b2386b" x="72.391846" y="65.282044" style="fill: #ffffff; stroke: #008000; stroke-width: 1.5; stroke-linecap: round"/>
     <use xlink:href="#m4a05b2386b" x="136.264297" y="55.681326" style="fill: #ffffff; stroke: #008000; stroke-width: 1.5; stroke-linecap: round"/>
     <use xlink:href="#m4a05b2386b" x="70.527504" y="91.793441" style="fill: #ffffff; stroke: #008000; stroke-width: 1.5; stroke-linecap: round"/>
     <use xlink:href="#m4a05b2386b" x="50.435651" y="61.731245" style="fill: #ffffff; stroke: #008000; stroke-width: 1.5; stroke-linecap: round"/>
     <use xlink:href="#m4a05b2386b" x="65.632261" y="120.868186" style="fill: #ffffff; stroke: #008000; stroke-width: 1.5; stroke-linecap: round"/>
     <use xlink:href="#m4a05b2386b" x="120.47421" y="17.237159" style="fill: #ffffff; stroke: #008000; stroke-width: 1.5; stroke-linecap: round"/>
     <use xlink:href="#m4a05b2386b" x="23.350246" y="57.777756" style="fill: #ffffff; stroke: #008000; stroke-width: 1.5; stroke-linecap: round"/>
     <use xlink:href="#m4a05b2386b" x="18.866209" y="43.770993" style="fill: #ffffff; stroke: #008000; stroke-width: 1.5; stroke-linecap: round"/>
     <use xlink:href="#m4a05b2386b" x="43.30963" y="45.289818" style="fill: #ffffff; stroke: #008000; stroke-width: 1.5; stroke-linecap: round"/>
     <use xlink:href="#m4a05b2386b" x="106.416563" y="32.347046" style="fill: #ffffff; stroke: #008000; stroke-width: 1.5; stroke-linecap: round"/>
     <use xlink:href="#m4a05b2386b" x="18.748026" y="14.884875" style="fill: #ffffff; stroke: #008000; stroke-width: 1.5; stroke-linecap: round"/>
     <use xlink:href="#m4a05b2386b" x="36.086692" y="118.995883" style="fill: #ffffff; stroke: #008000; stroke-width: 1.5; stroke-linecap: round"/>
     <use xlink:href="#m4a05b2386b" x="82.046178" y="79.476122" style="fill: #ffffff; stroke: #008000; stroke-width: 1.5; stroke-linecap: round"/>
     <use xlink:href="#m4a05b2386b" x="120.969401" y="27.65411" style="fill: #ffffff; stroke: #008000; stroke-width: 1.5; stroke-linecap: round"/>
     <use xlink:href="#m4a05b2386b" x="48.392762" y="10.513826" style="fill: #ffffff; stroke: #008000; stroke-width: 1.5; stroke-linecap: round"/>
     <use xlink:href="#m4a05b2386b" x="44.680614" y="62.396636" style="fill: #ffffff; stroke: #008000; stroke-width: 1.5; stroke-linecap: round"/>
     <use xlink:href="#m4a05b2386b" x="39.732308" y="12.511184" style="fill: #ffffff; stroke: #008000; stroke-width: 1.5; stroke-linecap: round"/>
     <use xlink:href="#m4a05b2386b" x="26.798742" y="118.107388" style="fill: #ffffff; stroke: #008000; stroke-width: 1.5; stroke-linecap: round"/>
     <use xlink:href="#m4a05b2386b" x="65.092251" y="5.836035" style="fill: #ffffff; stroke: #008000; stroke-width: 1.5; stroke-linecap: round"/>
     <use xlink:href="#m4a05b2386b" x="129.730897" y="34.721655" style="fill: #ffffff; stroke: #008000; stroke-width: 1.5; stroke-linecap: round"/>
     <use xlink:href="#m4a05b2386b" x="129.605638" y="17.558774" style="fill: #ffffff; stroke: #008000; stroke-width: 1.5; stroke-linecap: round"/>
     <use xlink:href="#m4a05b2386b" x="76.950446" y="85.992632" style="fill: #ffffff; stroke: #008000; stroke-width: 1.5; stroke-linecap: round"/>
     <use xlink:href="#m4a05b2386b" x="112.789793" y="45.024548" style="fill: #ffffff; stroke: #008000; stroke-width: 1.5; stroke-linecap: round"/>
     <use xlink:href="#m4a05b2386b" x="56.394206" y="112.235166" style="fill: #ffffff; stroke: #008000; stroke-width: 1.5; stroke-linecap: round"/>
     <use xlink:href="#m4a05b2386b" x="109.218966" y="92.32847" style="fill: #ffffff; stroke: #008000; stroke-width: 1.5; stroke-linecap: round"/>
     <use xlink:href="#m4a05b2386b" x="136.120842" y="94.874955" style="fill: #ffffff; stroke: #008000; stroke-width: 1.5; stroke-linecap: round"/>
     <use xlink:href="#m4a05b2386b" x="20.874" y="24.945136" style="fill: #ffffff; stroke: #008000; stroke-width: 1.5; stroke-linecap: round"/>
     <use xlink:href="#m4a05b2386b" x="25.195659" y="102.186462" style="fill: #ffffff; stroke: #008000; stroke-width: 1.5; stroke-linecap: round"/>
     <use xlink:href="#m4a05b2386b" x="88.350393" y="19.796534" style="fill: #ffffff; stroke: #008000; stroke-width: 1.5; stroke-linecap: round"/>
     <use xlink:href="#m4a05b2386b" x="31.30451" y="86.65685" style="fill: #ffffff; stroke: #008000; stroke-width: 1.5; stroke-linecap: round"/>
    </g>
   </g>
   <g id="LineCollection_1">
    <path d="M 35.61885 44.058477 
L 65.691406 40.888995 
" clip-path="url(#p07c0800e03)" style="fill: none; stroke: #808080; stroke-opacity: 0.9; stroke-width: 2.5; stroke-linecap: round"/>
    <path d="M 35.61885 44.058477 
L 30.473477 14.047482 
" clip-path="url(#p07c0800e03)" style="fill: none; stroke: #808080; stroke-opacity: 0.9; stroke-width: 2.5; stroke-linecap: round"/>
    <path d="M 35.61885 44.058477 
L 30.59143 53.895319 
" clip-path="url(#p07c0800e03)" style="fill: none; stroke: #808080; stroke-opacity: 0.9; stroke-width: 2.5; stroke-linecap: round"/>
    <path d="M 65.691406 40.888995 
L 93.352889 57.831879 
" clip-path="url(#p07c0800e03)" style="fill: none; stroke: #808080; stroke-opacity: 0.9; stroke-width: 2.5; stroke-linecap: round"/>
    <path d="M 93.352889 57.831879 
L 128.756044 35.880391 
" clip-path="url(#p07c0800e03)" style="fill: none; stroke: #808080; stroke-opacity: 0.9; stroke-width: 2.5; stroke-linecap: round"/>
    <path d="M 93.352889 57.831879 
L 77.45435 84.099486 
" clip-path="url(#p07c0800e03)" style="fill: none; stroke: #808080; stroke-opacity: 0.9; stroke-width: 2.5; stroke-linecap: round"/>
    <path d="M 30.473477 14.047482 
L 50.435651 61.731245 
" clip-path="url(#p07c0800e03)" style="fill: none; stroke: #808080; stroke-opacity: 0.9; stroke-width: 2.5; stroke-linecap: round"/>
    <path d="M 50.435651 61.731245 
L 21.905622 87.916172 
" clip-path="url(#p07c0800e03)" style="fill: none; stroke: #808080; stroke-opacity: 0.9; stroke-width: 2.5; stroke-linecap: round"/>
    <path d="M 50.435651 61.731245 
L 105.326387 33.837985 
" clip-path="url(#p07c0800e03)" style="fill: none; stroke: #808080; stroke-opacity: 0.9; stroke-width: 2.5; stroke-linecap: round"/>
    <path d="M 30.59143 53.895319 
L 49.622516 79.530936 
" clip-path="url(#p07c0800e03)" style="fill: none; stroke: #808080; stroke-opacity: 0.9; stroke-width: 2.5; stroke-linecap: round"/>
    <path d="M 49.622516 79.530936 
L 21.905622 87.916172 
" clip-path="url(#p07c0800e03)" style="fill: none; stroke: #808080; stroke-opacity: 0.9; stroke-width: 2.5; stroke-linecap: round"/>
    <path d="M 49.622516 79.530936 
L 61.049118 113.569287 
" clip-path="url(#p07c0800e03)" style="fill: none; stroke: #808080; stroke-opacity: 0.9; stroke-width: 2.5; stroke-linecap: round"/>
    <path d="M 128.756044 35.880391 
L 113.064953 71.42355 
" clip-path="url(#p07c0800e03)" style="fill: none; stroke: #808080; stroke-opacity: 0.9; stroke-width: 2.5; stroke-linecap: round"/>
    <path d="M 113.064953 71.42355 
L 105.326387 33.837985 
" clip-path="url(#p07c0800e03)" style="fill: none; stroke: #808080; stroke-opacity: 0.9; stroke-width: 2.5; stroke-linecap: round"/>
    <path d="M 113.064953 71.42355 
L 113.525602 92.306414 
" clip-path="url(#p07c0800e03)" style="fill: none; stroke: #808080; stroke-opacity: 0.9; stroke-width: 2.5; stroke-linecap: round"/>
    <path d="M 77.45435 84.099486 
L 100.116766 106.868952 
" clip-path="url(#p07c0800e03)" style="fill: none; stroke: #808080; stroke-opacity: 0.9; stroke-width: 2.5; stroke-linecap: round"/>
    <path d="M 100.116766 106.868952 
L 61.049118 113.569287 
" clip-path="url(#p07c0800e03)" style="fill: none; stroke: #808080; stroke-opacity: 0.9; stroke-width: 2.5; stroke-linecap: round"/>
    <path d="M 100.116766 106.868952 
L 113.525602 92.306414 
" clip-path="url(#p07c0800e03)" style="fill: none; stroke: #808080; stroke-opacity: 0.9; stroke-width: 2.5; stroke-linecap: round"/>
   </g>
   <g id="PathCollection_2">
    <path d="M 35.61885 49.058477 
C 36.944865 49.058477 38.216749 48.531646 39.154384 47.594011 
C 40.092018 46.656377 40.61885 45.384493 40.61885 44.058477 
C 40.61885 42.732462 40.092018 41.460578 39.154384 40.522943 
C 38.216749 39.585309 36.944865 39.058477 35.61885 39.058477 
C 34.292834 39.058477 33.02095 39.585309 32.083316 40.522943 
C 31.145681 41.460578 30.61885 42.732462 30.61885 44.058477 
C 30.61885 45.384493 31.145681 46.656377 32.083316 47.594011 
C 33.02095 48.531646 34.292834 49.058477 35.61885 49.058477 
z
" clip-path="url(#p07c0800e03)" style="fill: #ffffff; fill-opacity: 0.9; stroke: #1f77b4; stroke-opacity: 0.9; stroke-width: 1.5; stroke-linecap: round"/>
    <path d="M 65.691406 43.125063 
C 66.284418 43.125063 66.853222 42.889456 67.272545 42.470133 
C 67.691868 42.05081 67.927474 41.482007 67.927474 40.888995 
C 67.927474 40.295982 67.691868 39.727179 67.272545 39.307856 
C 66.853222 38.888533 66.284418 38.652927 65.691406 38.652927 
C 65.098394 38.652927 64.52959 38.888533 64.110267 39.307856 
C 63.690944 39.727179 63.455338 40.295982 63.455338 40.888995 
C 63.455338 41.482007 63.690944 42.05081 64.110267 42.470133 
C 64.52959 42.889456 65.098394 43.125063 65.691406 43.125063 
z
" clip-path="url(#p07c0800e03)" style="fill: #7f7f7f; fill-opacity: 0.9; stroke: #7f7f7f; stroke-opacity: 0.9; stroke-width: 1.5; stroke-linecap: round"/>
    <path d="M 93.352889 62.831879 
C 94.678905 62.831879 95.950789 62.305047 96.888423 61.367413 
C 97.826058 60.429778 98.352889 59.157894 98.352889 57.831879 
C 98.352889 56.505863 97.826058 55.233979 96.888423 54.296345 
C 95.950789 53.35871 94.678905 52.831879 93.352889 52.831879 
C 92.026874 52.831879 90.75499 53.35871 89.817355 54.296345 
C 88.879721 55.233979 88.352889 56.505863 88.352889 57.831879 
C 88.352889 59.157894 88.879721 60.429778 89.817355 61.367413 
C 90.75499 62.305047 92.026874 62.831879 93.352889 62.831879 
z
" clip-path="url(#p07c0800e03)" style="fill: #ffffff; fill-opacity: 0.9; stroke: #1f77b4; stroke-opacity: 0.9; stroke-width: 1.5; stroke-linecap: round"/>
    <path d="M 30.473477 16.28355 
C 31.06649 16.28355 31.635293 16.047943 32.054616 15.62862 
C 32.473939 15.209298 32.709545 14.640494 32.709545 14.047482 
C 32.709545 13.454469 32.473939 12.885666 32.054616 12.466343 
C 31.635293 12.04702 31.06649 11.811414 30.473477 11.811414 
C 29.880465 11.811414 29.311661 12.04702 28.892339 12.466343 
C 28.473016 12.885666 28.237409 13.454469 28.237409 14.047482 
C 28.237409 14.640494 28.473016 15.209298 28.892339 15.62862 
C 29.311661 16.047943 29.880465 16.28355 30.473477 16.28355 
z
" clip-path="url(#p07c0800e03)" style="fill: #7f7f7f; fill-opacity: 0.9; stroke: #7f7f7f; stroke-opacity: 0.9; stroke-width: 1.5; stroke-linecap: round"/>
    <path d="M 50.435651 66.731245 
C 51.761666 66.731245 53.03355 66.204414 53.971184 65.266779 
C 54.908819 64.329145 55.435651 63.057261 55.435651 61.731245 
C 55.435651 60.40523 54.908819 59.133346 53.971184 58.195711 
C 53.03355 57.258077 51.761666 56.731245 50.435651 56.731245 
C 49.109635 56.731245 47.837751 57.258077 46.900117 58.195711 
C 45.962482 59.133346 45.435651 60.40523 45.435651 61.731245 
C 45.435651 63.057261 45.962482 64.329145 46.900117 65.266779 
C 47.837751 66.204414 49.109635 66.731245 50.435651 66.731245 
z
" clip-path="url(#p07c0800e03)" style="fill: #ffffff; fill-opacity: 0.9; stroke: #1f77b4; stroke-opacity: 0.9; stroke-width: 1.5; stroke-linecap: round"/>
    <path d="M 30.59143 56.131387 
C 31.184442 56.131387 31.753246 55.89578 32.172569 55.476457 
C 32.591892 55.057134 32.827498 54.488331 32.827498 53.895319 
C 32.827498 53.302306 32.591892 52.733503 32.172569 52.31418 
C 31.753246 51.894857 31.184442 51.659251 30.59143 51.659251 
C 29.998418 51.659251 29.429614 51.894857 29.010291 52.31418 
C 28.590968 52.733503 28.355362 53.302306 28.355362 53.895319 
C 28.355362 54.488331 28.590968 55.057134 29.010291 55.476457 
C 29.429614 55.89578 29.998418 56.131387 30.59143 56.131387 
z
" clip-path="url(#p07c0800e03)" style="fill: #7f7f7f; fill-opacity: 0.9; stroke: #7f7f7f; stroke-opacity: 0.9; stroke-width: 1.5; stroke-linecap: round"/>
    <path d="M 49.622516 84.530936 
C 50.948532 84.530936 52.220415 84.004104 53.15805 83.06647 
C 54.095685 82.128835 54.622516 80.856951 54.622516 79.530936 
C 54.622516 78.20492 54.095685 76.933036 53.15805 75.995402 
C 52.220415 75.057767 50.948532 74.530936 49.622516 74.530936 
C 48.296501 74.530936 47.024617 75.057767 46.086982 75.995402 
C 45.149348 76.933036 44.622516 78.20492 44.622516 79.530936 
C 44.622516 80.856951 45.149348 82.128835 46.086982 83.06647 
C 47.024617 84.004104 48.296501 84.530936 49.622516 84.530936 
z
" clip-path="url(#p07c0800e03)" style="fill: #ffffff; fill-opacity: 0.9; stroke: #1f77b4; stroke-opacity: 0.9; stroke-width: 1.5; stroke-linecap: round"/>
    <path d="M 128.756044 38.116459 
C 129.349056 38.116459 129.91786 37.880853 130.337183 37.46153 
C 130.756506 37.042207 130.992112 36.473403 130.992112 35.880391 
C 130.992112 35.287379 130.756506 34.718575 130.337183 34.299252 
C 129.91786 33.879929 129.349056 33.644323 128.756044 33.644323 
C 128.163032 33.644323 127.594228 33.879929 127.174905 34.299252 
C 126.755582 34.718575 126.519976 35.287379 126.519976 35.880391 
C 126.519976 36.473403 126.755582 37.042207 127.174905 37.46153 
C 127.594228 37.880853 128.163032 38.116459 128.756044 38.116459 
z
" clip-path="url(#p07c0800e03)" style="fill: #7f7f7f; fill-opacity: 0.9; stroke: #7f7f7f; stroke-opacity: 0.9; stroke-width: 1.5; stroke-linecap: round"/>
    <path d="M 113.064953 76.42355 
C 114.390969 76.42355 115.662852 75.896718 116.600487 74.959084 
C 117.538122 74.021449 118.064953 72.749566 118.064953 71.42355 
C 118.064953 70.097535 117.538122 68.825651 116.600487 67.888016 
C 115.662852 66.950382 114.390969 66.42355 113.064953 66.42355 
C 111.738938 66.42355 110.467054 66.950382 109.529419 67.888016 
C 108.591785 68.825651 108.064953 70.097535 108.064953 71.42355 
C 108.064953 72.749566 108.591785 74.021449 109.529419 74.959084 
C 110.467054 75.896718 111.738938 76.42355 113.064953 76.42355 
z
" clip-path="url(#p07c0800e03)" style="fill: #ffffff; fill-opacity: 0.9; stroke: #1f77b4; stroke-opacity: 0.9; stroke-width: 1.5; stroke-linecap: round"/>
    <path d="M 77.45435 86.335554 
C 78.047362 86.335554 78.616166 86.099948 79.035489 85.680625 
C 79.454811 85.261302 79.690418 84.692498 79.690418 84.099486 
C 79.690418 83.506474 79.454811 82.93767 79.035489 82.518347 
C 78.616166 82.099024 78.047362 81.863418 77.45435 81.863418 
C 76.861338 81.863418 76.292534 82.099024 75.873211 82.518347 
C 75.453888 82.93767 75.218282 83.506474 75.218282 84.099486 
C 75.218282 84.692498 75.453888 85.261302 75.873211 85.680625 
C 76.292534 86.099948 76.861338 86.335554 77.45435 86.335554 
z
" clip-path="url(#p07c0800e03)" style="fill: #7f7f7f; fill-opacity: 0.9; stroke: #7f7f7f; stroke-opacity: 0.9; stroke-width: 1.5; stroke-linecap: round"/>
    <path d="M 100.116766 111.868952 
C 101.442782 111.868952 102.714666 111.34212 103.6523 110.404486 
C 104.589935 109.466851 105.116766 108.194968 105.116766 106.868952 
C 105.116766 105.542937 104.589935 104.271053 103.6523 103.333418 
C 102.714666 102.395784 101.442782 101.868952 100.116766 101.868952 
C 98.790751 101.868952 97.518867 102.395784 96.581232 103.333418 
C 95.643598 104.271053 95.116766 105.542937 95.116766 106.868952 
C 95.116766 108.194968 95.643598 109.466851 96.581232 110.404486 
C 97.518867 111.34212 98.790751 111.868952 100.116766 111.868952 
z
" clip-path="url(#p07c0800e03)" style="fill: #ffffff; fill-opacity: 0.9; stroke: #1f77b4; stroke-opacity: 0.9; stroke-width: 1.5; stroke-linecap: round"/>
    <path d="M 21.905622 90.15224 
C 22.498634 90.15224 23.067438 89.916633 23.486761 89.497311 
C 23.906084 89.077988 24.14169 88.509184 24.14169 87.916172 
C 24.14169 87.32316 23.906084 86.754356 23.486761 86.335033 
C 23.067438 85.91571 22.498634 85.680104 21.905622 85.680104 
C 21.31261 85.680104 20.743806 85.91571 20.324483 86.335033 
C 19.90516 86.754356 19.669554 87.32316 19.669554 87.916172 
C 19.669554 88.509184 19.90516 89.077988 20.324483 89.497311 
C 20.743806 89.916633 21.31261 90.15224 21.905622 90.15224 
z
" clip-path="url(#p07c0800e03)" style="fill: #7f7f7f; fill-opacity: 0.9; stroke: #7f7f7f; stroke-opacity: 0.9; stroke-width: 1.5; stroke-linecap: round"/>
    <path d="M 105.326387 36.074053 
C 105.919399 36.074053 106.488203 35.838446 106.907526 35.419123 
C 107.326849 34.9998 107.562455 34.430997 107.562455 33.837985 
C 107.562455 33.244972 107.326849 32.676169 106.907526 32.256846 
C 106.488203 31.837523 105.919399 31.601917 105.326387 31.601917 
C 104.733375 31.601917 104.164571 31.837523 103.745248 32.256846 
C 103.325925 32.676169 103.090319 33.244972 103.090319 33.837985 
C 103.090319 34.430997 103.325925 34.9998 103.745248 35.419123 
C 104.164571 35.838446 104.733375 36.074053 105.326387 36.074053 
z
" clip-path="url(#p07c0800e03)" style="fill: #7f7f7f; fill-opacity: 0.9; stroke: #7f7f7f; stroke-opacity: 0.9; stroke-width: 1.5; stroke-linecap: round"/>
    <path d="M 61.049118 115.805355 
C 61.64213 115.805355 62.210934 115.569748 62.630257 115.150425 
C 63.04958 114.731103 63.285186 114.162299 63.285186 113.569287 
C 63.285186 112.976274 63.04958 112.407471 62.630257 111.988148 
C 62.210934 111.568825 61.64213 111.333219 61.049118 111.333219 
C 60.456106 111.333219 59.887302 111.568825 59.467979 111.988148 
C 59.048656 112.407471 58.81305 112.976274 58.81305 113.569287 
C 58.81305 114.162299 59.048656 114.731103 59.467979 115.150425 
C 59.887302 115.569748 60.456106 115.805355 61.049118 115.805355 
z
" clip-path="url(#p07c0800e03)" style="fill: #7f7f7f; fill-opacity: 0.9; stroke: #7f7f7f; stroke-opacity: 0.9; stroke-width: 1.5; stroke-linecap: round"/>
    <path d="M 113.525602 94.542482 
C 114.118614 94.542482 114.687418 94.306876 115.106741 93.887553 
C 115.526064 93.46823 115.76167 92.899427 115.76167 92.306414 
C 115.76167 91.713402 115.526064 91.144599 115.106741 90.725276 
C 114.687418 90.305953 114.118614 90.070346 113.525602 90.070346 
C 112.93259 90.070346 112.363786 90.305953 111.944463 90.725276 
C 111.52514 91.144599 111.289534 91.713402 111.289534 92.306414 
C 111.289534 92.899427 111.52514 93.46823 111.944463 93.887553 
C 112.363786 94.306876 112.93259 94.542482 113.525602 94.542482 
z
" clip-path="url(#p07c0800e03)" style="fill: #7f7f7f; fill-opacity: 0.9; stroke: #7f7f7f; stroke-opacity: 0.9; stroke-width: 1.5; stroke-linecap: round"/>
   </g>
  </g>
 </g>
 <defs>
  <clipPath id="p07c0800e03">
   <rect x="0" y="0" width="147.628346" height="128.392774"/>
  </clipPath>
 </defs>
</svg>
